<svg height="438pt" viewBox="-27 0 438 438.001" width="438pt" xmlns="http://www.w3.org/2000/svg"><path d="m281.503906 211.214844c4.605469 0 9.210938.257812 13.785156.773437v-112.421875h-61.097656c-24.289062-.027344-43.972656-19.710937-44-44v-55.566406h-166.191406c-13.25.015625-23.984375 10.75-24 24v335.792969c.015625 13.246093 10.75 23.984375 24 24h144.347656c-16.589844-38.140625-12.84375-82.074219 9.960938-116.855469 22.808594-34.785156 61.605468-55.734375 103.195312-55.722656zm0 0"/><path d="m234.195312 79.566406h46.972657l-70.972657-65.9375v41.9375c.011719 13.246094 10.75 23.984375 24 24zm0 0"/><path d="m281.503906 231.214844c-57.101562 0-103.394531 46.289062-103.390625 103.390625 0 57.105469 46.289063 103.394531 103.394531 103.394531 57.101563 0 103.390626-46.289062 103.390626-103.394531-.0625-57.074219-46.316407-103.328125-103.394532-103.390625zm52.5 111.730468h-40.839844v46.378907c0 5.523437-4.476562 10-10 10-5.523437 0-10-4.476563-10-10v-46.378907h-40.84375c-5.523437 0-10-4.476562-10-10 0-5.519531 4.476563-10 10-10h40.84375v-40.84375c0-5.523437 4.476563-10 10-10 5.523438 0 10 4.476563 10 10v40.84375h40.84375c5.523438 0 10 4.476563 10 10 0 5.523438-4.476562 10-10 10zm0 0"/></svg>